<svg width="158" height="65" viewBox="0 0 158 65" fill="none" xmlns="http://www.w3.org/2000/svg">
<rect x="7.04651" y="7.42432" width="149.919" height="56.5756" fill="#222222" stroke="white" stroke-width="2"/>
<path d="M17.4803 49.3302H20.6374V36.9987H20.786C21.0336 37.6426 21.3555 38.1873 21.7517 38.633C22.1727 39.0787 22.6431 39.4378 23.1631 39.7102C23.6831 39.9826 24.2279 40.1806 24.7974 40.3045C25.3917 40.4283 25.986 40.4902 26.5803 40.4902C27.8184 40.4902 28.9574 40.2673 29.9974 39.8216C31.0374 39.3511 31.9289 38.6949 32.6717 37.853C33.4393 37.0111 34.0336 35.9959 34.4546 34.8073C34.8755 33.594 35.086 32.2568 35.086 30.7959C35.086 29.3102 34.8755 27.973 34.4546 26.7845C34.0336 25.5959 33.4393 24.5806 32.6717 23.7387C31.9289 22.8721 31.0374 22.2159 29.9974 21.7702C28.9574 21.2997 27.8184 21.0645 26.5803 21.0645C23.6336 21.0645 21.7022 22.2035 20.786 24.4816H20.6374V21.473H17.4803V49.3302ZM20.6374 28.9016C20.6374 28.0845 20.7612 27.3168 21.0089 26.5987C21.2812 25.8559 21.6527 25.2245 22.1231 24.7045C22.5936 24.1597 23.1384 23.7387 23.7574 23.4416C24.4012 23.1197 25.0822 22.9587 25.8003 22.9587C26.5679 22.9587 27.2984 23.1073 27.9917 23.4045C28.7098 23.6768 29.3289 24.1225 29.8489 24.7416C30.3689 25.3606 30.7774 26.1654 31.0746 27.1559C31.3965 28.1464 31.5574 29.3349 31.5574 30.7216C31.5574 32.133 31.3965 33.334 31.0746 34.3245C30.7774 35.3149 30.3565 36.1321 29.8117 36.7759C29.2917 37.3949 28.6851 37.853 27.9917 38.1502C27.2984 38.4226 26.5679 38.5587 25.8003 38.5587C25.107 38.5587 24.4508 38.4226 23.8317 38.1502C23.2127 37.853 22.6679 37.4321 22.1974 36.8873C21.727 36.3178 21.3431 35.6368 21.046 34.8445C20.7736 34.0521 20.6374 33.1483 20.6374 32.133V28.9016Z" fill="white"/>
<path d="M47.4737 35.6987L41.048 21.473H37.668L45.988 39.8216L44.0194 44.6502C43.7966 45.2197 43.4994 45.6778 43.128 46.0245C42.7813 46.3711 42.3728 46.5445 41.9023 46.5445C41.4566 46.5445 41.0233 46.4083 40.6023 46.1359C40.2061 45.8883 39.8966 45.5168 39.6737 45.0216L38.0394 48.1045C38.5099 48.5254 39.0299 48.8349 39.5994 49.033C40.169 49.2311 40.7013 49.3302 41.1966 49.3302C41.8899 49.3302 42.4966 49.1568 43.0166 48.8102C43.5366 48.4635 43.9947 48.0054 44.3909 47.4359C44.7871 46.8911 45.1337 46.2721 45.4309 45.5787C45.728 44.9102 46.0128 44.2416 46.2852 43.573L55.2737 21.473H53.4537L47.6223 35.6987H47.4737Z" fill="white"/>
<path d="M68.2987 38.5587C67.4073 38.5587 66.5406 38.4226 65.6987 38.1502C64.8815 37.8778 64.1511 37.4445 63.5073 36.8502C62.8635 36.2311 62.3435 35.4264 61.9473 34.4359C61.5758 33.4206 61.3901 32.1826 61.3901 30.7216C61.3901 29.2111 61.6006 27.9359 62.0215 26.8959C62.4425 25.8311 62.9625 24.9892 63.5815 24.3702C64.2254 23.7264 64.9311 23.2683 65.6987 22.9959C66.4663 22.6987 67.1968 22.5502 67.8901 22.5502C69.0292 22.5502 70.0196 22.8473 70.8616 23.4416C71.7035 24.0359 72.2606 24.7664 72.533 25.633H75.0958C74.8482 24.7416 74.452 24.0111 73.9073 23.4416C73.3625 22.8473 72.7311 22.3768 72.013 22.0302C71.3196 21.6587 70.5644 21.4111 69.7473 21.2873C68.9549 21.1387 68.1873 21.0645 67.4444 21.0645C65.8844 21.0645 64.5101 21.3245 63.3215 21.8445C62.133 22.3397 61.1301 23.0206 60.313 23.8873C59.4958 24.754 58.8768 25.7692 58.4558 26.933C58.0596 28.0968 57.8615 29.3349 57.8615 30.6473C57.8615 32.034 58.0844 33.334 58.5301 34.5473C58.9758 35.7359 59.6073 36.7759 60.4244 37.6673C61.2663 38.534 62.2692 39.2273 63.433 39.7473C64.5968 40.2425 65.9092 40.4902 67.3701 40.4902C69.0044 40.4902 70.4282 40.2178 71.6416 39.673C72.8797 39.1283 73.9196 38.534 74.7616 37.8902L73.6844 36.4787C72.8177 37.1968 71.9511 37.7292 71.0844 38.0759C70.2425 38.3978 69.3139 38.5587 68.2987 38.5587Z" fill="white"/>
<path d="M82.1138 21.473H79.1795V40.0445H80.4424V25.373H80.591L87.9452 40.4902H88.3167L95.1881 25.373H95.3367V40.0445H98.4938V21.473H95.6338L89.171 35.6616H88.9852L82.1138 21.473Z" fill="white"/>
<path d="M120.916 31.5759V30.7959C120.916 29.1368 120.681 27.7006 120.211 26.4873C119.74 25.274 119.096 24.2711 118.279 23.4787C117.487 22.6864 116.558 22.0921 115.494 21.6959C114.429 21.2997 113.302 21.1016 112.114 21.1016C110.851 21.1016 109.687 21.3245 108.622 21.7702C107.557 22.1911 106.629 22.8225 105.837 23.6645C105.044 24.4816 104.425 25.4845 103.979 26.673C103.534 27.8368 103.311 29.1616 103.311 30.6473C103.311 31.8854 103.496 33.0987 103.868 34.2873C104.264 35.4511 104.846 36.5035 105.614 37.4445C106.406 38.3606 107.396 39.1035 108.585 39.673C109.798 40.2178 111.222 40.4902 112.856 40.4902C114.441 40.4902 115.902 40.2178 117.239 39.673C118.576 39.1035 119.74 38.2987 120.731 37.2587L119.542 36.0702C119.022 36.5159 118.527 36.9245 118.057 37.2959C117.611 37.6673 117.153 37.9768 116.682 38.2245C116.212 38.4721 115.716 38.6702 115.196 38.8187C114.701 38.9426 114.144 39.0045 113.525 39.0045C112.832 39.0045 112.089 38.9054 111.296 38.7073C110.529 38.4845 109.811 38.1006 109.142 37.5559C108.474 37.0111 107.916 36.2559 107.471 35.2902C107.025 34.3245 106.802 33.0864 106.802 31.5759H120.916ZM106.802 30.0902C106.802 29.0997 106.901 28.1464 107.099 27.2302C107.322 26.2892 107.644 25.4597 108.065 24.7416C108.511 24.0235 109.068 23.454 109.736 23.033C110.405 22.5873 111.197 22.3645 112.114 22.3645C113.872 22.3645 115.234 23.0578 116.199 24.4445C117.19 25.8064 117.685 27.6883 117.685 30.0902H106.802Z" fill="white"/>
<path d="M130.953 40.0445H134.11V22.9587H141.539V21.473H123.525V22.9587H130.953V40.0445Z" fill="white"/>
<rect x="1" y="1" width="149.919" height="56.5756" stroke="white" stroke-width="2"/>
</svg>
